<svg width="150" height="150" viewBox="0 0 150 150" fill="none" xmlns="http://www.w3.org/2000/svg">
<g clip-path="url(#clip0_138_18)">
<path d="M102.256 64.1252C101.501 64.3421 100.8 64.7158 100.199 65.222C99.5983 65.7282 99.1108 66.3554 98.7687 67.0627L98.3187 67.9877L98.325 69.2814C98.325 70.4877 98.35 70.6377 98.6937 71.4877C99.1687 72.6939 99.6437 73.4377 100.512 74.2877C102.012 75.7752 103.7 76.1627 105.962 75.5689C106.657 75.3567 107.302 75.0058 107.857 74.5374C108.413 74.069 108.867 73.4929 109.194 72.8439C109.714 71.8949 109.89 70.7956 109.694 69.7314C109.294 66.9002 107.631 64.8439 105.169 64.1252C104.21 63.9091 103.215 63.9091 102.256 64.1252ZM44.7375 64.1564C42.8312 64.7564 41.4062 66.1564 40.675 68.1502C40.3097 69.1921 40.1816 70.3024 40.3 71.4002C40.6562 73.3314 42.2375 75.0877 44.0375 75.5689C46.3 76.1627 47.9875 75.7752 49.4875 74.2877C50.3625 73.4377 50.8312 72.6939 51.3062 71.4877C51.65 70.6377 51.675 70.4877 51.675 69.2814L51.6812 67.9877L51.2312 67.0627C50.8858 66.3485 50.3922 65.716 49.7834 65.2073C49.1745 64.6987 48.4643 64.3255 47.7 64.1127C46.7227 63.8944 45.7078 63.9094 44.7375 64.1564ZM70.8875 76.6564C70.0687 77.1002 69.4937 78.2189 69.6687 79.0502C69.8625 79.9439 70.65 80.8502 71.875 81.5939C72.5312 81.9877 72.575 82.0439 72.6062 82.4439C72.6312 82.6814 72.5437 83.3564 72.425 83.9627C72.3 84.5502 72.2 85.1752 72.2 85.3502C72.2125 85.8127 72.6375 86.5689 73.0937 86.9314C73.4937 87.2564 73.5687 87.2689 74.6875 87.3002C75.7125 87.3314 75.925 87.3064 76.3375 87.1127C77.3937 86.6002 77.6625 85.6502 77.275 83.8314C76.95 82.3127 77.0125 82.0814 77.8187 81.6127C78.675 81.1127 79.575 80.2439 79.8437 79.6502C80.0902 79.1065 80.1137 78.4878 79.9092 77.9269C79.7048 77.3661 79.2886 76.9077 78.75 76.6502C78.3945 76.4931 78.0068 76.4225 77.6187 76.4439C76.8312 76.4439 76.325 76.6314 75.4 77.2189L74.8687 77.5502L74.5375 77.3502C73.1687 76.5377 72.9187 76.4439 72.0937 76.4564C71.6812 76.4212 71.2665 76.4899 70.8875 76.6564ZM73.325 62.9377C70.9937 63.1627 70.3562 63.2502 69.2375 63.4752C67.4187 63.8502 64.9875 64.6939 63.2937 65.5252C57.4187 68.4002 53.3625 73.1877 52.125 78.7377C51.875 79.8377 51.8437 80.2002 51.8437 82.0502C51.8437 83.8877 51.875 84.2814 52.1125 85.3252C53.7625 92.5752 60.4375 97.9314 69.075 98.9064C70.95 99.1127 79.05 99.1127 80.925 98.9064C87.8625 98.1252 93.825 94.3627 96.5062 89.0877C97.2187 87.6752 97.5625 86.7627 97.8812 85.3252C98.125 84.2814 98.1562 83.8877 98.1562 82.0564C98.1562 80.2002 98.125 79.8377 97.875 78.7377C96.075 70.6752 88.2562 64.3377 78.675 63.1314C76.8995 62.9559 75.1085 62.8912 73.325 62.9377ZM77.3562 68.7939C80.5672 69.1415 83.6509 70.2422 86.3562 72.0064C87.75 72.9314 89.7125 74.8689 90.55 76.1439C91.5875 77.7127 92.175 79.3189 92.4437 81.2689C92.5687 82.1627 92.5062 82.8377 92.175 84.2814C91.675 86.4377 90.1 88.6877 87.975 90.2627C86.6353 91.1634 85.1888 91.894 83.6687 92.4377C81.2812 93.2002 79.7187 93.3377 74.1375 93.3002C70.5 93.2627 69.85 93.2377 68.8062 93.0377C65.2437 92.3689 62.4187 90.9502 60.3687 88.7877C58.7187 87.0377 57.9625 85.4439 57.5562 82.8752C57.3687 81.6752 57.7125 79.6939 58.4125 78.0252C59.2625 75.9877 61.4625 73.4627 63.6375 72.0064C66.1562 70.3252 69.475 69.1314 72.525 68.8064C73.6937 68.6814 76.1875 68.6814 77.3562 68.7939ZM42.9625 0.0439368C41.4163 0.331768 39.9563 0.968787 38.6937 1.90644C35.1062 4.62519 32.3312 10.4127 31.1562 17.6189C30.7187 20.3439 30.4125 24.1189 30.4125 27.0127C30.4125 30.4127 30.8125 34.7627 31.3812 37.7689C31.5062 38.4377 31.575 39.0314 31.525 39.0689C31.1401 39.3914 30.7505 39.7081 30.3562 40.0189C28.1084 41.875 26.1143 44.0183 24.425 46.3939C21.3593 50.7452 19.3479 55.75 18.55 61.0127C18.2118 63.8274 18.1637 66.6694 18.4062 69.4939C18.975 74.3689 20.4375 78.4814 22.95 82.2439L23.7625 83.4627L23.5312 83.8627C21.85 86.6877 20.4187 90.7689 19.75 94.6877C19.225 97.7877 19.1562 98.619 19.1562 102.775C19.1562 106.963 19.2125 107.794 19.7062 110.688C20.3 114.156 21.5062 117.831 22.85 120.275C23.2937 121.075 24.3687 122.731 24.5 122.819C24.5437 122.838 24.4125 123.238 24.2125 123.7C22.5594 127.434 21.4077 131.37 20.7875 135.406C20.4 138.013 20.3437 138.856 20.3437 141.6C20.3437 145.1 20.5375 146.8 21.2687 149.594L21.375 150H30.6125L30.3 149.431C28.4437 145.981 28.2687 139.588 29.875 133.2C30.6062 130.25 31.4375 128.081 32.9875 125.1L33.9125 123.288V122.181C33.9125 121.15 33.8937 121.031 33.5562 120.35C33.2459 119.763 32.8356 119.234 32.3437 118.788C31.3307 117.822 30.5137 116.67 29.9375 115.394C27.2875 109.644 26.775 101.106 28.6375 93.8252C29.4125 90.7877 30.6937 88.0877 32.0375 86.6127C32.9047 85.7223 33.4026 84.5366 33.4312 83.2939C33.4312 82.0752 32.9937 81.0752 32.0312 80.0314C29.2456 77.0488 27.4605 73.271 26.925 69.2252C26.05 63.2252 27.6375 56.6939 31.2375 51.5127C34.7562 46.4252 39.6937 43.1627 45.2187 42.2939C46.4625 42.0877 48.7812 42.1189 50.0687 42.3564C51.4812 42.6064 52.3625 42.5314 53.2687 42.1002C54.3875 41.5689 54.9437 40.9127 55.6062 39.4064C56.1875 38.0627 56.6375 37.3252 57.8562 35.8064C59.3187 33.9939 60.7312 32.7502 62.9937 31.2502C65.575 29.5627 68.5187 28.3314 71.4437 27.7439C72.5062 27.5252 73.0062 27.4939 75 27.4939C76.9937 27.4939 77.4875 27.5252 78.5562 27.7439C83.0318 28.7067 87.1646 30.8595 90.5187 33.9752C91.25 34.6564 93.0062 36.8314 93.5687 37.7377C93.7812 38.0939 94.1625 38.8439 94.3937 39.4064C95.05 40.9127 95.6125 41.5689 96.7312 42.0939C97.6062 42.5189 98.5187 42.6064 99.875 42.3752C102.019 42.0127 103.669 42.0439 105.769 42.4752C112.919 43.9127 119.144 49.8064 121.9 57.7064C124.306 64.6314 123.625 71.8752 120.05 77.4127C119.444 78.3502 118.844 79.1002 117.969 80.0314C116.087 82.0439 116.087 84.5439 117.962 86.6127C121.044 89.9814 122.969 98.2752 122.387 105.588C122 110.413 120.762 114.731 119.056 117.175C118.634 117.75 118.166 118.289 117.656 118.788C117.164 119.234 116.754 119.763 116.444 120.35C116.106 121.031 116.087 121.15 116.087 122.181V123.294L117.012 125.106C118.562 128.081 119.387 130.25 120.125 133.2C121.706 139.5 121.569 145.763 119.756 149.331C119.652 149.53 119.56 149.734 119.481 149.944C119.481 149.981 121.537 150 124.056 150H128.619L128.744 149.538L128.969 148.7C129.087 148.225 129.325 146.825 129.519 145.475C129.7 144.119 129.7 139.125 129.519 137.613C128.831 132.144 127.675 127.8 125.787 123.7C125.587 123.238 125.456 122.838 125.5 122.819C125.55 122.788 125.856 122.356 126.175 121.869C128.525 118.313 129.969 113.844 130.7 107.944C130.894 106.319 130.894 99.3314 130.7 97.7689C130.181 93.7377 129.562 91.0064 128.525 88.2377C127.933 86.7372 127.246 85.2759 126.469 83.8627L126.231 83.4627L127.05 82.2502C129.562 78.4752 131.025 74.3627 131.594 69.5002C131.835 66.6734 131.784 63.8292 131.444 61.0127C130.643 55.7519 128.634 50.7482 125.575 46.3939C123.884 44.018 121.887 41.8746 119.637 40.0189C119.245 39.708 118.858 39.3913 118.475 39.0689C118.457 38.6308 118.505 38.1925 118.619 37.7689C119.919 30.9752 119.875 22.5002 118.512 15.8752C117.325 10.1002 115.169 5.51269 112.387 2.86269C110.175 0.750187 107.912 -0.149813 105.2 0.0189368C98.975 0.387687 93.95 7.55019 91.975 18.8314C91.6916 20.332 91.4892 21.8467 91.3687 23.3689C91.3687 23.5939 91.325 23.7814 91.275 23.7814C90.9509 23.6465 90.6393 23.4834 90.3437 23.2939C85.7089 20.5001 80.4114 18.9961 75 18.9377C69.8 18.9377 64.4562 20.4564 59.65 23.3002C59.3564 23.4894 59.0469 23.6525 58.725 23.7877C58.675 23.7877 58.6312 23.6002 58.6312 23.3752C58.5117 21.8549 58.3093 20.3422 58.025 18.8439C56.2312 8.70019 52.1062 1.99394 46.625 0.300187C45.4243 0.0438542 44.1872 -0.0424066 42.9625 0.0439368ZM44.7937 8.80644C46.3437 10.0377 48.0625 13.5502 49.0562 17.4814C49.2437 18.1877 49.4312 19.0064 49.4875 19.3064C49.5312 19.6002 49.65 20.2564 49.7437 20.7627C50.1625 23.0439 50.3562 25.5127 50.3812 28.5127L50.3937 31.4814L49.6437 32.5752L48.9062 33.6877H47.1687C45.1437 33.6877 43.1312 33.9439 41.2062 34.4627L39.7187 34.8377C39.5125 34.8814 39.4812 34.8189 39.3625 33.9377C38.7263 29.1166 38.7599 24.2308 39.4625 19.4189C40.2375 14.4939 42.0437 10.0377 43.8125 8.72519C44.2312 8.41269 44.3062 8.41894 44.7937 8.80644ZM106.2 8.73144C107.262 9.51894 108.437 11.6064 109.312 14.2814C111.062 19.6189 111.562 26.9564 110.637 33.9377C110.519 34.8127 110.487 34.8814 110.281 34.8377L108.794 34.4627C106.849 33.9455 104.844 33.6849 102.831 33.6877H101.094L100.35 32.5752L99.6062 31.4814L99.6187 28.5189C99.6437 24.3377 100.031 21.0814 100.956 17.4439C101.937 13.5502 103.669 10.0377 105.206 8.80644C105.694 8.41894 105.769 8.41269 106.2 8.73144Z" fill="black"/>
</g>
<defs>
<clipPath id="clip0_138_18">
<rect width="150" height="150" fill="white"/>
</clipPath>
</defs>
</svg>
