<svg width="48" height="64" viewBox="0 0 48 64" fill="none" xmlns="http://www.w3.org/2000/svg">
<path d="M35.5285 27.3603C35.2091 27.4528 34.9126 27.6123 34.6585 27.8283C34.4043 28.0442 34.1981 28.3118 34.0534 28.6136L33.8631 29.0083L33.8658 29.5603C33.8658 30.0749 33.8763 30.1389 34.0217 30.5016C34.2226 31.0163 34.4235 31.3336 34.791 31.6963C35.4254 32.3309 36.1391 32.4962 37.096 32.2429C37.3899 32.1523 37.6625 32.0026 37.8974 31.8028C38.1323 31.603 38.3246 31.3572 38.4627 31.0803C38.6826 30.6753 38.7573 30.2063 38.6742 29.7523C38.505 28.5443 37.8018 27.6669 36.7603 27.3603C36.3548 27.2681 35.934 27.2681 35.5285 27.3603ZM11.201 27.3736C10.3947 27.6296 9.79204 28.2269 9.48276 29.0776C9.32826 29.5222 9.27408 29.9959 9.32415 30.4643C9.47483 31.2883 10.1436 32.0376 10.9049 32.2429C11.8618 32.4962 12.5756 32.3309 13.21 31.6963C13.5801 31.3336 13.7783 31.0163 13.9792 30.5016C14.1246 30.1389 14.1352 30.0749 14.1352 29.5603L14.1378 29.0083L13.9475 28.6136C13.8014 28.3089 13.5927 28.039 13.3351 27.822C13.0776 27.605 12.7772 27.4458 12.454 27.355C12.0407 27.2618 11.6114 27.2682 11.201 27.3736ZM22.2611 32.7069C21.9148 32.8962 21.6716 33.3736 21.7456 33.7282C21.8276 34.1096 22.1607 34.4962 22.6788 34.8136C22.9563 34.9816 22.9748 35.0056 22.988 35.1762C22.9986 35.2776 22.9616 35.5656 22.9114 35.8242C22.8585 36.0749 22.8162 36.3415 22.8162 36.4162C22.8215 36.6135 23.0013 36.9362 23.1942 37.0909C23.3634 37.2295 23.3951 37.2349 23.8683 37.2482C24.3018 37.2615 24.3917 37.2509 24.5662 37.1682C25.0129 36.9495 25.1266 36.5442 24.9627 35.7682C24.8252 35.1202 24.8517 35.0216 25.1927 34.8216C25.5548 34.6082 25.9355 34.2376 26.0491 33.9842C26.1534 33.7522 26.1633 33.4883 26.0769 33.249C25.9904 33.0097 25.8143 32.8141 25.5865 32.7042C25.4362 32.6372 25.2722 32.6071 25.1081 32.6162C24.775 32.6162 24.5609 32.6962 24.1697 32.9469L23.945 33.0882L23.8049 33.0029C23.226 32.6562 23.1202 32.6162 22.7713 32.6216C22.5968 32.6065 22.4214 32.6359 22.2611 32.7069ZM23.292 26.8536C22.306 26.9496 22.0364 26.987 21.5632 27.083C20.794 27.243 19.7657 27.6029 19.0493 27.9576C16.5645 29.1843 14.8489 31.2269 14.3255 33.5949C14.2198 34.0642 14.2066 34.2189 14.2066 35.0082C14.2066 35.7922 14.2198 35.9602 14.3202 36.4055C15.0181 39.4989 17.8413 41.7842 21.4945 42.2002C22.2875 42.2882 25.7134 42.2882 26.5065 42.2002C29.4407 41.8668 31.9625 40.2615 33.0965 38.0109C33.3979 37.4082 33.5433 37.0189 33.6781 36.4055C33.7812 35.9602 33.7944 35.7922 33.7944 35.0109C33.7944 34.2189 33.7812 34.0642 33.6754 33.5949C32.9141 30.1549 29.6072 27.451 25.5548 26.9363C24.8039 26.8614 24.0464 26.8338 23.292 26.8536ZM24.9971 29.3523C26.3552 29.5006 27.6594 29.9702 28.8036 30.7229C29.3931 31.1176 30.2231 31.9442 30.5773 32.4882C31.0161 33.1576 31.2646 33.8429 31.3783 34.6749C31.4312 35.0562 31.4047 35.3442 31.2646 35.9602C31.0532 36.8802 30.387 37.8402 29.4882 38.5122C28.9216 38.8965 28.3098 39.2082 27.6669 39.4402C26.6571 39.7655 25.9963 39.8242 23.6357 39.8082C22.0972 39.7922 21.8223 39.7815 21.3808 39.6962C19.8741 39.4109 18.6793 38.8055 17.8122 37.8829C17.1143 37.1362 16.7945 36.4562 16.6227 35.3602C16.5434 34.8482 16.6888 34.0029 16.9848 33.2909C17.3443 32.4216 18.2748 31.3443 19.1947 30.7229C20.26 30.0056 21.6637 29.4963 22.9537 29.3576C23.448 29.3043 24.5027 29.3043 24.9971 29.3523ZM10.4503 0.0191629C9.79632 0.14197 9.17881 0.413762 8.64479 0.813823C7.12746 1.97381 5.95378 4.44313 5.45681 7.51777C5.27177 8.68043 5.14225 10.2911 5.14225 11.5257C5.14225 12.9764 5.31142 14.8324 5.55198 16.115C5.60485 16.4004 5.63392 16.6537 5.61278 16.6697C5.45 16.8073 5.28521 16.9424 5.11845 17.075C4.16776 17.8669 3.32433 18.7814 2.60984 19.795C1.3132 21.6515 0.462504 23.7869 0.125014 26.0323C-0.0179983 27.2332 -0.0383715 28.4458 0.0642151 29.6509C0.304767 31.7309 0.92333 33.4856 1.98599 35.0909L2.32964 35.6109L2.23183 35.7816C1.52075 36.9869 0.9154 38.7282 0.632553 40.4002C0.410505 41.7228 0.381427 42.0775 0.381427 43.8508C0.381427 45.6375 0.405218 45.9921 0.614049 47.2268C0.865175 48.7068 1.37536 50.2748 1.94369 51.3174C2.13138 51.6588 2.58605 52.3654 2.64156 52.4028C2.66006 52.4108 2.60455 52.5814 2.51996 52.7788C1.82079 54.3719 1.33369 56.0513 1.07136 57.7734C0.90747 58.8854 0.883679 59.2454 0.883679 60.416C0.883679 61.9094 0.965625 62.6347 1.27491 63.8267L1.31985 64H5.22684L5.09466 63.7573C4.30957 62.2854 4.23555 59.5574 4.91491 56.8321C5.22419 55.5734 5.57577 54.6481 6.23134 53.3761L6.62257 52.6028V52.1308C6.62257 51.6908 6.61464 51.6401 6.47189 51.3494C6.34063 51.0989 6.16709 50.8733 5.95907 50.6828C5.53062 50.2707 5.18505 49.779 4.94135 49.2348C3.82053 46.7815 3.60377 43.1388 4.39151 40.0322C4.7193 38.7362 5.2612 37.5842 5.82954 36.9549C6.19632 36.575 6.40693 36.0691 6.41902 35.5389C6.41902 35.0189 6.23398 34.5922 5.82689 34.1469C4.64872 32.8743 3.89371 31.2625 3.66721 29.5363C3.29713 26.9763 3.96856 24.1896 5.49118 21.979C6.97943 19.8083 9.06774 18.4164 11.4045 18.0457C11.9306 17.9577 12.9113 17.971 13.4558 18.0724C14.0533 18.179 14.426 18.147 14.8093 17.963C15.2824 17.7364 15.5177 17.4564 15.7979 16.8137C16.0438 16.2404 16.2341 15.9257 16.7495 15.2777C17.3681 14.5044 17.9655 13.9737 18.9225 13.3337C20.0142 12.6137 21.2592 12.0884 22.4964 11.8377C22.9458 11.7444 23.1572 11.7311 24.0005 11.7311C24.8437 11.7311 25.0526 11.7444 25.5046 11.8377C27.3975 12.2485 29.1455 13.167 30.5641 14.4964C30.8734 14.787 31.6162 15.715 31.8541 16.1017C31.944 16.2537 32.1052 16.5737 32.203 16.8137C32.4806 17.4564 32.7185 17.7364 33.1917 17.9604C33.5618 18.1417 33.9477 18.179 34.5213 18.0804C35.428 17.9257 36.1259 17.939 37.0141 18.123C40.0382 18.7364 42.671 21.251 43.8368 24.6216C44.8545 27.5763 44.5664 30.6669 43.0543 33.0296C42.7979 33.4296 42.5441 33.7496 42.1741 34.1469C41.3784 35.0056 41.3784 36.0722 42.1714 36.9549C43.4746 38.3922 44.2888 41.9308 44.043 45.0508C43.8791 47.1095 43.3557 48.9521 42.634 49.9948C42.4555 50.24 42.2575 50.4701 42.0419 50.6828C41.8339 50.8733 41.6604 51.0989 41.5291 51.3494C41.3863 51.6401 41.3784 51.6908 41.3784 52.1308V52.6054L41.7696 53.3788C42.4252 54.6481 42.7741 55.5734 43.0861 56.8321C43.7548 59.52 43.6967 62.192 42.9301 63.7147C42.8859 63.7992 42.847 63.8865 42.8138 63.976C42.8138 63.992 43.6835 64 44.7488 64H46.6785L46.7313 63.8027L46.8265 63.4453C46.8767 63.2427 46.9772 62.6453 47.0591 62.0694C47.1358 61.4907 47.1358 59.36 47.0591 58.7147C46.7684 56.3814 46.2793 54.5281 45.481 52.7788C45.3964 52.5814 45.3409 52.4108 45.3594 52.4028C45.3805 52.3894 45.5101 52.2054 45.6449 51.9974C46.6388 50.4801 47.2495 48.5735 47.5587 46.0561C47.6407 45.3628 47.6407 42.3815 47.5587 41.7148C47.3393 39.9949 47.0776 38.8295 46.6388 37.6482C46.3885 37.008 46.098 36.3845 45.7691 35.7816L45.6687 35.6109L46.015 35.0936C47.0776 33.4829 47.6962 31.7283 47.9367 29.6536C48.0386 28.4475 48.0174 27.234 47.8733 26.0323C47.5345 23.7877 46.6849 21.6528 45.3911 19.795C44.6758 18.7813 43.8315 17.8668 42.8799 17.075C42.714 16.9424 42.5501 16.8073 42.3882 16.6697C42.3805 16.4828 42.401 16.2957 42.449 16.115C42.9988 13.2164 42.9803 9.60042 42.404 6.77378C41.9018 4.3098 40.9898 2.35248 39.8135 1.22182C38.8777 0.320494 37.9208 -0.0635031 36.7735 0.00849631C34.1407 0.165828 32.0154 3.22181 31.18 8.0351C31.0602 8.67532 30.9746 9.32158 30.9236 9.97109C30.9236 10.0671 30.9051 10.1471 30.884 10.1471C30.7469 10.0895 30.6151 10.0199 30.4901 9.93909C28.5298 8.74706 26.2892 8.10536 24.0005 8.08043C21.8011 8.08043 19.541 8.72843 17.5082 9.94175C17.3841 10.0225 17.2532 10.0921 17.117 10.1498C17.0958 10.1498 17.0773 10.0698 17.0773 9.97375C17.0268 9.32509 16.9412 8.67969 16.8209 8.04043C16.0623 3.71247 14.3176 0.851156 11.9993 0.128495C11.4915 0.0191276 10.9683 -0.0176767 10.4503 0.0191629ZM11.2248 3.7578C11.8803 4.28313 12.6073 5.78179 13.0276 7.45911C13.1069 7.76044 13.1862 8.10977 13.21 8.23777C13.2285 8.3631 13.2787 8.6431 13.3184 8.8591C13.4955 9.83242 13.5774 10.8857 13.588 12.1657L13.5933 13.4324L13.2761 13.8991L12.9642 14.3737H12.2293C11.3728 14.3737 10.5216 14.4831 9.70745 14.7044L9.07831 14.8644C8.99108 14.883 8.97786 14.8564 8.92764 14.4804C8.65856 12.4234 8.67279 10.3388 8.96993 8.28577C9.29772 6.18445 10.0617 4.28313 10.8098 3.72313C10.9869 3.5898 11.0186 3.59247 11.2248 3.7578ZM37.1965 3.7258C37.6459 4.0618 38.1428 4.95246 38.5129 6.09378C39.2531 8.3711 39.4646 11.5017 39.0733 14.4804C39.0231 14.8537 39.0099 14.883 38.9227 14.8644L38.2935 14.7044C37.4708 14.4837 36.623 14.3725 35.7717 14.3737H35.0368L34.7222 13.8991L34.4077 13.4324L34.413 12.1684C34.4235 10.3844 34.5874 8.99509 34.9786 7.44311C35.3937 5.78178 36.1259 4.28313 36.7762 3.7578C36.9824 3.59247 37.0141 3.5898 37.1965 3.7258Z" fill="black"/>
</svg>
